<svg width="1440" height="60" viewBox="0 0 1440 60" fill="none" xmlns="http://www.w3.org/2000/svg">
<path d="M1112 0H1142V30H1112V0Z" fill="#010B0D"/>
<path d="M1142 0H1172V30H1142V0Z" fill="#FEF9E9"/>
<path d="M1172 0H1202V30H1172V0Z" fill="#010B0D"/>
<path d="M1202 0H1232V30H1202V0Z" fill="#FEF9E9"/>
<path d="M1232 0H1262V30H1232V0Z" fill="#010B0D"/>
<path d="M1262 0H1292V30H1262V0Z" fill="#FEF9E9"/>
<path d="M1292 0H1322V30H1292V0Z" fill="#010B0D"/>
<path d="M1322 0H1352V30H1322V0Z" fill="#FEF9E9"/>
<path d="M1112 30H1142V60H1112V30Z" fill="#FEF9E9"/>
<path d="M1142 30H1172V60H1142V30Z" fill="#010B0D"/>
<path d="M1172 30H1202V60H1172V30Z" fill="#FEF9E9"/>
<path d="M1202 30H1232V60H1202V30Z" fill="#010B0D"/>
<path d="M1232 30H1262V60H1232V30Z" fill="#FEF9E9"/>
<path d="M1262 30H1292V60H1262V30Z" fill="#010B0D"/>
<path d="M1292 30H1322V60H1292V30Z" fill="#FEF9E9"/>
<path d="M1322 30H1352V60H1322V30Z" fill="#010B0D"/>
<path d="M1352 0H1382V30H1352V0Z" fill="#010B0D"/>
<path d="M1382 0H1412V30H1382V0Z" fill="#FEF9E9"/>
<path d="M1412 0H1442V30H1412V0Z" fill="#010B0D"/>
<path d="M1442 0H1472V30H1442V0Z" fill="#FEF9E9"/>
<path d="M1472 0H1502V30H1472V0Z" fill="#010B0D"/>
<path d="M1502 0H1532V30H1502V0Z" fill="#FEF9E9"/>
<path d="M1532 0H1562V30H1532V0Z" fill="#010B0D"/>
<path d="M1562 0H1592V30H1562V0Z" fill="#FEF9E9"/>
<path d="M1352 30H1382V60H1352V30Z" fill="#FEF9E9"/>
<path d="M1382 30H1412V60H1382V30Z" fill="#010B0D"/>
<path d="M1412 30H1442V60H1412V30Z" fill="#FEF9E9"/>
<path d="M1442 30H1472V60H1442V30Z" fill="#010B0D"/>
<path d="M1472 30H1502V60H1472V30Z" fill="#FEF9E9"/>
<path d="M1502 30H1532V60H1502V30Z" fill="#010B0D"/>
<path d="M1532 30H1562V60H1532V30Z" fill="#FEF9E9"/>
<path d="M1562 30H1592V60H1562V30Z" fill="#010B0D"/>
<path d="M632 0H662V30H632V0Z" fill="#010B0D"/>
<path d="M662 0H692V30H662V0Z" fill="#FEF9E9"/>
<path d="M692 0H722V30H692V0Z" fill="#010B0D"/>
<path d="M722 0H752V30H722V0Z" fill="#FEF9E9"/>
<path d="M752 0H782V30H752V0Z" fill="#010B0D"/>
<path d="M782 0H812V30H782V0Z" fill="#FEF9E9"/>
<path d="M812 0H842V30H812V0Z" fill="#010B0D"/>
<path d="M842 0H872V30H842V0Z" fill="#FEF9E9"/>
<path d="M632 30H662V60H632V30Z" fill="#FEF9E9"/>
<path d="M662 30H692V60H662V30Z" fill="#010B0D"/>
<path d="M692 30H722V60H692V30Z" fill="#FEF9E9"/>
<path d="M722 30H752V60H722V30Z" fill="#010B0D"/>
<path d="M752 30H782V60H752V30Z" fill="#FEF9E9"/>
<path d="M782 30H812V60H782V30Z" fill="#010B0D"/>
<path d="M812 30H842V60H812V30Z" fill="#FEF9E9"/>
<path d="M842 30H872V60H842V30Z" fill="#010B0D"/>
<path d="M872 0H902V30H872V0Z" fill="#010B0D"/>
<path d="M902 0H932V30H902V0Z" fill="#FEF9E9"/>
<path d="M932 0H962V30H932V0Z" fill="#010B0D"/>
<path d="M962 0H992V30H962V0Z" fill="#FEF9E9"/>
<path d="M992 0H1022V30H992V0Z" fill="#010B0D"/>
<path d="M1022 0H1052V30H1022V0Z" fill="#FEF9E9"/>
<path d="M1052 0H1082V30H1052V0Z" fill="#010B0D"/>
<path d="M1082 0H1112V30H1082V0Z" fill="#FEF9E9"/>
<path d="M872 30H902V60H872V30Z" fill="#FEF9E9"/>
<path d="M902 30H932V60H902V30Z" fill="#010B0D"/>
<path d="M932 30H962V60H932V30Z" fill="#FEF9E9"/>
<path d="M962 30H992V60H962V30Z" fill="#010B0D"/>
<path d="M992 30H1022V60H992V30Z" fill="#FEF9E9"/>
<path d="M1022 30H1052V60H1022V30Z" fill="#010B0D"/>
<path d="M1052 30H1082V60H1052V30Z" fill="#FEF9E9"/>
<path d="M1082 30H1112V60H1082V30Z" fill="#010B0D"/>
<path d="M152 0H182V30H152V0Z" fill="#010B0D"/>
<path d="M182 0H212V30H182V0Z" fill="#FEF9E9"/>
<path d="M212 0H242V30H212V0Z" fill="#010B0D"/>
<path d="M242 0H272V30H242V0Z" fill="#FEF9E9"/>
<path d="M272 0H302V30H272V0Z" fill="#010B0D"/>
<path d="M302 0H332V30H302V0Z" fill="#FEF9E9"/>
<path d="M332 0H362V30H332V0Z" fill="#010B0D"/>
<path d="M362 0H392V30H362V0Z" fill="#FEF9E9"/>
<path d="M152 30H182V60H152V30Z" fill="#FEF9E9"/>
<path d="M182 30H212V60H182V30Z" fill="#010B0D"/>
<path d="M212 30H242V60H212V30Z" fill="#FEF9E9"/>
<path d="M242 30H272V60H242V30Z" fill="#010B0D"/>
<path d="M272 30H302V60H272V30Z" fill="#FEF9E9"/>
<path d="M302 30H332V60H302V30Z" fill="#010B0D"/>
<path d="M332 30H362V60H332V30Z" fill="#FEF9E9"/>
<path d="M362 30H392V60H362V30Z" fill="#010B0D"/>
<path d="M392 0H422V30H392V0Z" fill="#010B0D"/>
<path d="M422 0H452V30H422V0Z" fill="#FEF9E9"/>
<path d="M452 0H482V30H452V0Z" fill="#010B0D"/>
<path d="M482 0H512V30H482V0Z" fill="#FEF9E9"/>
<path d="M512 0H542V30H512V0Z" fill="#010B0D"/>
<path d="M542 0H572V30H542V0Z" fill="#FEF9E9"/>
<path d="M572 0H602V30H572V0Z" fill="#010B0D"/>
<path d="M602 0H632V30H602V0Z" fill="#FEF9E9"/>
<path d="M392 30H422V60H392V30Z" fill="#FEF9E9"/>
<path d="M422 30H452V60H422V30Z" fill="#010B0D"/>
<path d="M452 30H482V60H452V30Z" fill="#FEF9E9"/>
<path d="M482 30H512V60H482V30Z" fill="#010B0D"/>
<path d="M512 30H542V60H512V30Z" fill="#FEF9E9"/>
<path d="M542 30H572V60H542V30Z" fill="#010B0D"/>
<path d="M572 30H602V60H572V30Z" fill="#FEF9E9"/>
<path d="M602 30H632V60H602V30Z" fill="#010B0D"/>
<path d="M-328 0H-298V30H-328V0Z" fill="#010B0D"/>
<path d="M-298 0H-268V30H-298V0Z" fill="#FEF9E9"/>
<path d="M-268 0H-238V30H-268V0Z" fill="#010B0D"/>
<path d="M-238 0H-208V30H-238V0Z" fill="#FEF9E9"/>
<path d="M-208 0H-178V30H-208V0Z" fill="#010B0D"/>
<path d="M-178 0H-148V30H-178V0Z" fill="#FEF9E9"/>
<path d="M-148 0H-118V30H-148V0Z" fill="#010B0D"/>
<path d="M-118 0H-88V30H-118V0Z" fill="#FEF9E9"/>
<path d="M-328 30H-298V60H-328V30Z" fill="#FEF9E9"/>
<path d="M-298 30H-268V60H-298V30Z" fill="#010B0D"/>
<path d="M-268 30H-238V60H-268V30Z" fill="#FEF9E9"/>
<path d="M-238 30H-208V60H-238V30Z" fill="#010B0D"/>
<path d="M-208 30H-178V60H-208V30Z" fill="#FEF9E9"/>
<path d="M-178 30H-148V60H-178V30Z" fill="#010B0D"/>
<path d="M-148 30H-118V60H-148V30Z" fill="#FEF9E9"/>
<path d="M-118 30H-88V60H-118V30Z" fill="#010B0D"/>
<path d="M-88 0H-58V30H-88V0Z" fill="#010B0D"/>
<path d="M-58 0H-28V30H-58V0Z" fill="#FEF9E9"/>
<path d="M-28 0H2V30H-28V0Z" fill="#010B0D"/>
<path d="M2 0H32V30H2V0Z" fill="#FEF9E9"/>
<path d="M32 0H62V30H32V0Z" fill="#010B0D"/>
<path d="M62 0H92V30H62V0Z" fill="#FEF9E9"/>
<path d="M92 0H122V30H92V0Z" fill="#010B0D"/>
<path d="M122 0H152V30H122V0Z" fill="#FEF9E9"/>
<path d="M-88 30H-58V60H-88V30Z" fill="#FEF9E9"/>
<path d="M-58 30H-28V60H-58V30Z" fill="#010B0D"/>
<path d="M-28 30H2V60H-28V30Z" fill="#FEF9E9"/>
<path d="M2 30H32V60H2V30Z" fill="#010B0D"/>
<path d="M32 30H62V60H32V30Z" fill="#FEF9E9"/>
<path d="M62 30H92V60H62V30Z" fill="#010B0D"/>
<path d="M92 30H122V60H92V30Z" fill="#FEF9E9"/>
<path d="M122 30H152V60H122V30Z" fill="#010B0D"/>
</svg>
